<mxfile host="app.diagrams.net" modified="2024-06-26T04:03:18.962Z" agent="Mozilla/5.0 (Windows NT 10.0; Win64; x64) AppleWebKit/537.36 (KHTML, like Gecko) Chrome/126.0.0.0 Safari/537.36" etag="cxpLlKKuQYthfFMYJwFK" version="24.6.2" type="github">
  <diagram name="第 1 页" id="CkGSKztVBFBJFA1lb6ab">
    <mxGraphModel dx="1050" dy="522" grid="1" gridSize="10" guides="1" tooltips="1" connect="1" arrows="1" fold="1" page="1" pageScale="1" pageWidth="827" pageHeight="1169" math="0" shadow="0">
      <root>
        <mxCell id="0" />
        <mxCell id="1" parent="0" />
        <mxCell id="_pDycScL7eCbL9fVAwtq-1" value="marketcapi" style="shape=umlLifeline;perimeter=lifelinePerimeter;whiteSpace=wrap;html=1;container=1;dropTarget=0;collapsible=0;recursiveResize=0;outlineConnect=0;portConstraint=eastwest;newEdgeStyle={&quot;curved&quot;:0,&quot;rounded&quot;:0};" vertex="1" parent="1">
          <mxGeometry x="20" y="60" width="100" height="380" as="geometry" />
        </mxCell>
        <mxCell id="_pDycScL7eCbL9fVAwtq-2" value="触点引擎" style="shape=umlLifeline;perimeter=lifelinePerimeter;whiteSpace=wrap;html=1;container=1;dropTarget=0;collapsible=0;recursiveResize=0;outlineConnect=0;portConstraint=eastwest;newEdgeStyle={&quot;curved&quot;:0,&quot;rounded&quot;:0};" vertex="1" parent="1">
          <mxGeometry x="230" y="60" width="100" height="390" as="geometry" />
        </mxCell>
        <mxCell id="_pDycScL7eCbL9fVAwtq-6" value="" style="html=1;points=[[0,0,0,0,5],[0,1,0,0,-5],[1,0,0,0,5],[1,1,0,0,-5]];perimeter=orthogonalPerimeter;outlineConnect=0;targetShapes=umlLifeline;portConstraint=eastwest;newEdgeStyle={&quot;curved&quot;:0,&quot;rounded&quot;:0};" vertex="1" parent="_pDycScL7eCbL9fVAwtq-2">
          <mxGeometry x="45" y="80" width="10" height="80" as="geometry" />
        </mxCell>
        <mxCell id="_pDycScL7eCbL9fVAwtq-3" value="触点内容" style="shape=umlLifeline;perimeter=lifelinePerimeter;whiteSpace=wrap;html=1;container=1;dropTarget=0;collapsible=0;recursiveResize=0;outlineConnect=0;portConstraint=eastwest;newEdgeStyle={&quot;curved&quot;:0,&quot;rounded&quot;:0};" vertex="1" parent="1">
          <mxGeometry x="470" y="60" width="100" height="390" as="geometry" />
        </mxCell>
        <mxCell id="_pDycScL7eCbL9fVAwtq-9" value="" style="html=1;points=[[0,0,0,0,5],[0,1,0,0,-5],[1,0,0,0,5],[1,1,0,0,-5]];perimeter=orthogonalPerimeter;outlineConnect=0;targetShapes=umlLifeline;portConstraint=eastwest;newEdgeStyle={&quot;curved&quot;:0,&quot;rounded&quot;:0};" vertex="1" parent="_pDycScL7eCbL9fVAwtq-3">
          <mxGeometry x="45" y="230" width="10" height="80" as="geometry" />
        </mxCell>
        <mxCell id="_pDycScL7eCbL9fVAwtq-7" value="查询展示位匹配方案" style="html=1;verticalAlign=bottom;endArrow=block;curved=0;rounded=0;entryX=0;entryY=0;entryDx=0;entryDy=5;" edge="1" target="_pDycScL7eCbL9fVAwtq-6" parent="1" source="_pDycScL7eCbL9fVAwtq-1">
          <mxGeometry relative="1" as="geometry">
            <mxPoint x="205" y="265" as="sourcePoint" />
          </mxGeometry>
        </mxCell>
        <mxCell id="_pDycScL7eCbL9fVAwtq-8" value="return" style="html=1;verticalAlign=bottom;endArrow=open;dashed=1;endSize=8;curved=0;rounded=0;exitX=0;exitY=1;exitDx=0;exitDy=-5;" edge="1" source="_pDycScL7eCbL9fVAwtq-6" parent="1" target="_pDycScL7eCbL9fVAwtq-1">
          <mxGeometry relative="1" as="geometry">
            <mxPoint x="205" y="335" as="targetPoint" />
          </mxGeometry>
        </mxCell>
        <mxCell id="_pDycScL7eCbL9fVAwtq-10" value="查询方案内容" style="html=1;verticalAlign=bottom;endArrow=block;curved=0;rounded=0;entryX=0;entryY=0;entryDx=0;entryDy=5;" edge="1" target="_pDycScL7eCbL9fVAwtq-9" parent="1" source="_pDycScL7eCbL9fVAwtq-1">
          <mxGeometry relative="1" as="geometry">
            <mxPoint x="445" y="295" as="sourcePoint" />
          </mxGeometry>
        </mxCell>
        <mxCell id="_pDycScL7eCbL9fVAwtq-11" value="return" style="html=1;verticalAlign=bottom;endArrow=open;dashed=1;endSize=8;curved=0;rounded=0;exitX=0;exitY=1;exitDx=0;exitDy=-5;" edge="1" source="_pDycScL7eCbL9fVAwtq-9" parent="1" target="_pDycScL7eCbL9fVAwtq-1">
          <mxGeometry relative="1" as="geometry">
            <mxPoint x="445" y="365" as="targetPoint" />
          </mxGeometry>
        </mxCell>
        <mxCell id="_pDycScL7eCbL9fVAwtq-14" value="" style="edgeStyle=orthogonalEdgeStyle;rounded=0;orthogonalLoop=1;jettySize=auto;html=1;" edge="1" parent="1" source="_pDycScL7eCbL9fVAwtq-12" target="_pDycScL7eCbL9fVAwtq-13">
          <mxGeometry relative="1" as="geometry" />
        </mxCell>
        <mxCell id="_pDycScL7eCbL9fVAwtq-12" value="" style="ellipse;fillColor=strokeColor;html=1;" vertex="1" parent="1">
          <mxGeometry x="780" y="60" width="30" height="30" as="geometry" />
        </mxCell>
        <mxCell id="_pDycScL7eCbL9fVAwtq-16" value="" style="edgeStyle=orthogonalEdgeStyle;rounded=0;orthogonalLoop=1;jettySize=auto;html=1;" edge="1" parent="1" source="_pDycScL7eCbL9fVAwtq-13" target="_pDycScL7eCbL9fVAwtq-15">
          <mxGeometry relative="1" as="geometry" />
        </mxCell>
        <mxCell id="_pDycScL7eCbL9fVAwtq-13" value="查询触点引擎" style="whiteSpace=wrap;html=1;fillColor=#dae8fc;strokeColor=#6c8ebf;" vertex="1" parent="1">
          <mxGeometry x="735" y="130" width="120" height="60" as="geometry" />
        </mxCell>
        <mxCell id="_pDycScL7eCbL9fVAwtq-18" value="" style="edgeStyle=orthogonalEdgeStyle;rounded=0;orthogonalLoop=1;jettySize=auto;html=1;" edge="1" parent="1" source="_pDycScL7eCbL9fVAwtq-15" target="_pDycScL7eCbL9fVAwtq-17">
          <mxGeometry relative="1" as="geometry" />
        </mxCell>
        <mxCell id="_pDycScL7eCbL9fVAwtq-19" value="否" style="edgeLabel;html=1;align=center;verticalAlign=middle;resizable=0;points=[];" vertex="1" connectable="0" parent="_pDycScL7eCbL9fVAwtq-18">
          <mxGeometry x="-0.4533" y="-2" relative="1" as="geometry">
            <mxPoint as="offset" />
          </mxGeometry>
        </mxCell>
        <mxCell id="_pDycScL7eCbL9fVAwtq-21" value="" style="edgeStyle=orthogonalEdgeStyle;rounded=0;orthogonalLoop=1;jettySize=auto;html=1;" edge="1" parent="1" source="_pDycScL7eCbL9fVAwtq-15" target="_pDycScL7eCbL9fVAwtq-20">
          <mxGeometry relative="1" as="geometry" />
        </mxCell>
        <mxCell id="_pDycScL7eCbL9fVAwtq-22" value="是" style="edgeLabel;html=1;align=center;verticalAlign=middle;resizable=0;points=[];" vertex="1" connectable="0" parent="_pDycScL7eCbL9fVAwtq-21">
          <mxGeometry x="-0.3333" relative="1" as="geometry">
            <mxPoint as="offset" />
          </mxGeometry>
        </mxCell>
        <mxCell id="_pDycScL7eCbL9fVAwtq-15" value="是否命中" style="rhombus;whiteSpace=wrap;html=1;fillColor=#dae8fc;strokeColor=#6c8ebf;" vertex="1" parent="1">
          <mxGeometry x="755" y="260" width="80" height="80" as="geometry" />
        </mxCell>
        <mxCell id="_pDycScL7eCbL9fVAwtq-24" value="" style="edgeStyle=orthogonalEdgeStyle;rounded=0;orthogonalLoop=1;jettySize=auto;html=1;" edge="1" parent="1" source="_pDycScL7eCbL9fVAwtq-17" target="_pDycScL7eCbL9fVAwtq-23">
          <mxGeometry relative="1" as="geometry" />
        </mxCell>
        <mxCell id="_pDycScL7eCbL9fVAwtq-17" value="直接基于大类查询内容默认方案" style="whiteSpace=wrap;html=1;fillColor=#dae8fc;strokeColor=#6c8ebf;" vertex="1" parent="1">
          <mxGeometry x="735" y="400" width="120" height="60" as="geometry" />
        </mxCell>
        <mxCell id="_pDycScL7eCbL9fVAwtq-45" value="" style="edgeStyle=orthogonalEdgeStyle;rounded=0;orthogonalLoop=1;jettySize=auto;html=1;" edge="1" parent="1" source="_pDycScL7eCbL9fVAwtq-20" target="_pDycScL7eCbL9fVAwtq-44">
          <mxGeometry relative="1" as="geometry" />
        </mxCell>
        <mxCell id="_pDycScL7eCbL9fVAwtq-20" value="基于大类小类查询触点内容信息" style="whiteSpace=wrap;html=1;fillColor=#dae8fc;strokeColor=#6c8ebf;" vertex="1" parent="1">
          <mxGeometry x="895" y="270" width="120" height="60" as="geometry" />
        </mxCell>
        <mxCell id="_pDycScL7eCbL9fVAwtq-48" style="edgeStyle=orthogonalEdgeStyle;rounded=0;orthogonalLoop=1;jettySize=auto;html=1;" edge="1" parent="1" target="_pDycScL7eCbL9fVAwtq-25">
          <mxGeometry relative="1" as="geometry">
            <mxPoint x="1017" y="435" as="sourcePoint" />
          </mxGeometry>
        </mxCell>
        <mxCell id="_pDycScL7eCbL9fVAwtq-23" value="缓存REDIS" style="whiteSpace=wrap;html=1;fillColor=#dae8fc;strokeColor=#6c8ebf;" vertex="1" parent="1">
          <mxGeometry x="895" y="400" width="120" height="60" as="geometry" />
        </mxCell>
        <mxCell id="_pDycScL7eCbL9fVAwtq-25" value="" style="ellipse;html=1;shape=endState;fillColor=strokeColor;" vertex="1" parent="1">
          <mxGeometry x="1080" y="420" width="30" height="30" as="geometry" />
        </mxCell>
        <mxCell id="_pDycScL7eCbL9fVAwtq-28" value="" style="edgeStyle=orthogonalEdgeStyle;rounded=0;orthogonalLoop=1;jettySize=auto;html=1;" edge="1" parent="1" source="_pDycScL7eCbL9fVAwtq-29" target="_pDycScL7eCbL9fVAwtq-31">
          <mxGeometry relative="1" as="geometry" />
        </mxCell>
        <mxCell id="_pDycScL7eCbL9fVAwtq-29" value="" style="ellipse;fillColor=strokeColor;html=1;" vertex="1" parent="1">
          <mxGeometry x="1255" y="60" width="30" height="30" as="geometry" />
        </mxCell>
        <mxCell id="_pDycScL7eCbL9fVAwtq-30" value="" style="edgeStyle=orthogonalEdgeStyle;rounded=0;orthogonalLoop=1;jettySize=auto;html=1;" edge="1" parent="1" source="_pDycScL7eCbL9fVAwtq-31" target="_pDycScL7eCbL9fVAwtq-36">
          <mxGeometry relative="1" as="geometry" />
        </mxCell>
        <mxCell id="_pDycScL7eCbL9fVAwtq-31" value="查询触点引擎" style="whiteSpace=wrap;html=1;fillColor=#dae8fc;strokeColor=#6c8ebf;" vertex="1" parent="1">
          <mxGeometry x="1210" y="130" width="120" height="60" as="geometry" />
        </mxCell>
        <mxCell id="_pDycScL7eCbL9fVAwtq-34" value="" style="edgeStyle=orthogonalEdgeStyle;rounded=0;orthogonalLoop=1;jettySize=auto;html=1;" edge="1" parent="1" source="_pDycScL7eCbL9fVAwtq-36" target="_pDycScL7eCbL9fVAwtq-40">
          <mxGeometry relative="1" as="geometry" />
        </mxCell>
        <mxCell id="_pDycScL7eCbL9fVAwtq-35" value="是" style="edgeLabel;html=1;align=center;verticalAlign=middle;resizable=0;points=[];" vertex="1" connectable="0" parent="_pDycScL7eCbL9fVAwtq-34">
          <mxGeometry x="-0.3333" relative="1" as="geometry">
            <mxPoint as="offset" />
          </mxGeometry>
        </mxCell>
        <mxCell id="_pDycScL7eCbL9fVAwtq-36" value="是否命中" style="rhombus;whiteSpace=wrap;html=1;fillColor=#dae8fc;strokeColor=#6c8ebf;" vertex="1" parent="1">
          <mxGeometry x="1230" y="260" width="80" height="80" as="geometry" />
        </mxCell>
        <mxCell id="_pDycScL7eCbL9fVAwtq-60" value="" style="edgeStyle=orthogonalEdgeStyle;rounded=0;orthogonalLoop=1;jettySize=auto;html=1;" edge="1" parent="1" source="_pDycScL7eCbL9fVAwtq-40" target="_pDycScL7eCbL9fVAwtq-59">
          <mxGeometry relative="1" as="geometry" />
        </mxCell>
        <mxCell id="_pDycScL7eCbL9fVAwtq-40" value="基于大类小类查询触点内容信息" style="whiteSpace=wrap;html=1;fillColor=#dae8fc;strokeColor=#6c8ebf;" vertex="1" parent="1">
          <mxGeometry x="1370" y="270" width="120" height="60" as="geometry" />
        </mxCell>
        <mxCell id="_pDycScL7eCbL9fVAwtq-41" style="edgeStyle=orthogonalEdgeStyle;rounded=0;orthogonalLoop=1;jettySize=auto;html=1;exitX=1;exitY=0.5;exitDx=0;exitDy=0;entryX=0;entryY=0.5;entryDx=0;entryDy=0;" edge="1" parent="1" source="_pDycScL7eCbL9fVAwtq-42" target="_pDycScL7eCbL9fVAwtq-43">
          <mxGeometry relative="1" as="geometry" />
        </mxCell>
        <mxCell id="_pDycScL7eCbL9fVAwtq-42" value="缓存REDIS" style="whiteSpace=wrap;html=1;fillColor=#dae8fc;strokeColor=#6c8ebf;" vertex="1" parent="1">
          <mxGeometry x="1370" y="400" width="120" height="60" as="geometry" />
        </mxCell>
        <mxCell id="_pDycScL7eCbL9fVAwtq-43" value="" style="ellipse;html=1;shape=endState;fillColor=strokeColor;" vertex="1" parent="1">
          <mxGeometry x="1555" y="415" width="30" height="30" as="geometry" />
        </mxCell>
        <mxCell id="_pDycScL7eCbL9fVAwtq-49" style="edgeStyle=orthogonalEdgeStyle;rounded=0;orthogonalLoop=1;jettySize=auto;html=1;exitX=0.5;exitY=1;exitDx=0;exitDy=0;entryX=0.5;entryY=0;entryDx=0;entryDy=0;" edge="1" parent="1" source="_pDycScL7eCbL9fVAwtq-44" target="_pDycScL7eCbL9fVAwtq-23">
          <mxGeometry relative="1" as="geometry" />
        </mxCell>
        <mxCell id="_pDycScL7eCbL9fVAwtq-50" value="是" style="edgeLabel;html=1;align=center;verticalAlign=middle;resizable=0;points=[];" vertex="1" connectable="0" parent="_pDycScL7eCbL9fVAwtq-49">
          <mxGeometry x="-0.6541" y="2" relative="1" as="geometry">
            <mxPoint as="offset" />
          </mxGeometry>
        </mxCell>
        <mxCell id="_pDycScL7eCbL9fVAwtq-51" style="edgeStyle=orthogonalEdgeStyle;rounded=0;orthogonalLoop=1;jettySize=auto;html=1;exitX=1;exitY=0.5;exitDx=0;exitDy=0;entryX=1;entryY=0.5;entryDx=0;entryDy=0;" edge="1" parent="1" source="_pDycScL7eCbL9fVAwtq-44" target="_pDycScL7eCbL9fVAwtq-25">
          <mxGeometry relative="1" as="geometry" />
        </mxCell>
        <mxCell id="_pDycScL7eCbL9fVAwtq-52" value="否" style="edgeLabel;html=1;align=center;verticalAlign=middle;resizable=0;points=[];" vertex="1" connectable="0" parent="_pDycScL7eCbL9fVAwtq-51">
          <mxGeometry x="-0.5076" y="2" relative="1" as="geometry">
            <mxPoint as="offset" />
          </mxGeometry>
        </mxCell>
        <mxCell id="_pDycScL7eCbL9fVAwtq-44" value="是否默认" style="rhombus;whiteSpace=wrap;html=1;fillColor=#dae8fc;strokeColor=#6c8ebf;" vertex="1" parent="1">
          <mxGeometry x="1055" y="260" width="80" height="80" as="geometry" />
        </mxCell>
        <mxCell id="_pDycScL7eCbL9fVAwtq-56" style="rounded=0;orthogonalLoop=1;jettySize=auto;html=1;entryX=1;entryY=0.5;entryDx=0;entryDy=0;" edge="1" parent="1" source="_pDycScL7eCbL9fVAwtq-54" target="_pDycScL7eCbL9fVAwtq-13">
          <mxGeometry relative="1" as="geometry" />
        </mxCell>
        <mxCell id="_pDycScL7eCbL9fVAwtq-54" value="原来只根据引擎方案匹配结果返回" style="text;html=1;align=center;verticalAlign=middle;resizable=0;points=[];autosize=1;strokeColor=none;fillColor=none;" vertex="1" parent="1">
          <mxGeometry x="855" y="70" width="200" height="30" as="geometry" />
        </mxCell>
        <mxCell id="_pDycScL7eCbL9fVAwtq-57" value="现在引擎方案未匹配查询默认方案返回" style="text;html=1;align=center;verticalAlign=middle;resizable=0;points=[];autosize=1;strokeColor=none;fillColor=none;" vertex="1" parent="1">
          <mxGeometry x="1315" y="70" width="230" height="30" as="geometry" />
        </mxCell>
        <mxCell id="_pDycScL7eCbL9fVAwtq-58" style="rounded=0;orthogonalLoop=1;jettySize=auto;html=1;entryX=1;entryY=0.5;entryDx=0;entryDy=0;" edge="1" parent="1">
          <mxGeometry relative="1" as="geometry">
            <mxPoint x="1420" y="100" as="sourcePoint" />
            <mxPoint x="1340" y="160" as="targetPoint" />
          </mxGeometry>
        </mxCell>
        <mxCell id="_pDycScL7eCbL9fVAwtq-61" style="edgeStyle=orthogonalEdgeStyle;rounded=0;orthogonalLoop=1;jettySize=auto;html=1;exitX=0.5;exitY=1;exitDx=0;exitDy=0;entryX=0.5;entryY=0;entryDx=0;entryDy=0;" edge="1" parent="1" source="_pDycScL7eCbL9fVAwtq-59" target="_pDycScL7eCbL9fVAwtq-42">
          <mxGeometry relative="1" as="geometry" />
        </mxCell>
        <mxCell id="_pDycScL7eCbL9fVAwtq-62" value="是" style="edgeLabel;html=1;align=center;verticalAlign=middle;resizable=0;points=[];" vertex="1" connectable="0" parent="_pDycScL7eCbL9fVAwtq-61">
          <mxGeometry x="0.1638" y="-1" relative="1" as="geometry">
            <mxPoint as="offset" />
          </mxGeometry>
        </mxCell>
        <mxCell id="_pDycScL7eCbL9fVAwtq-63" style="edgeStyle=orthogonalEdgeStyle;rounded=0;orthogonalLoop=1;jettySize=auto;html=1;exitX=1;exitY=0.5;exitDx=0;exitDy=0;entryX=1;entryY=0.5;entryDx=0;entryDy=0;" edge="1" parent="1" source="_pDycScL7eCbL9fVAwtq-59" target="_pDycScL7eCbL9fVAwtq-43">
          <mxGeometry relative="1" as="geometry" />
        </mxCell>
        <mxCell id="_pDycScL7eCbL9fVAwtq-64" value="否" style="edgeLabel;html=1;align=center;verticalAlign=middle;resizable=0;points=[];" vertex="1" connectable="0" parent="_pDycScL7eCbL9fVAwtq-63">
          <mxGeometry x="-0.3327" relative="1" as="geometry">
            <mxPoint as="offset" />
          </mxGeometry>
        </mxCell>
        <mxCell id="_pDycScL7eCbL9fVAwtq-59" value="是否默认" style="rhombus;whiteSpace=wrap;html=1;fillColor=#dae8fc;strokeColor=#6c8ebf;" vertex="1" parent="1">
          <mxGeometry x="1540" y="260" width="80" height="80" as="geometry" />
        </mxCell>
      </root>
    </mxGraphModel>
  </diagram>
</mxfile>
